<?xml version="1.0" standalone="no"?>
<!DOCTYPE svg PUBLIC "-//W3C//DTD SVG 20010904//EN"
 "http://www.w3.org/TR/2001/REC-SVG-20010904/DTD/svg10.dtd">
<svg version="1.0" xmlns="http://www.w3.org/2000/svg"
 width="500.000000pt" height="500.000000pt" viewBox="0 0 500.000000 500.000000"
 preserveAspectRatio="xMidYMid meet">

<g transform="translate(0.000000,500.000000) scale(0.100000,-0.100000)"
fill="#000000" stroke="none">
<path d="M762 4860 c-111 -16 -239 -104 -297 -204 -58 -100 -55 21 -53 -2172
l3 -2009 24 -59 c30 -76 132 -179 216 -221 56 -28 68 -30 170 -30 92 0 117 3
150 21 22 11 333 186 690 389 358 202 670 377 694 387 33 16 59 19 110 16 66
-4 66 -4 726 -378 363 -205 689 -387 725 -404 59 -28 74 -31 165 -31 93 0 105
2 167 33 80 39 169 130 207 212 l26 55 3 2030 c2 2251 7 2084 -63 2192 -42 64
-123 126 -201 156 l-59 22 -1675 1 c-921 1 -1699 -2 -1728 -6z m1702 -1316
c208 -54 382 -223 448 -434 48 -156 22 -371 -62 -504 l-31 -49 194 -196 c107
-108 200 -207 207 -220 38 -74 -53 -166 -126 -127 -16 8 -117 103 -224 210
-171 172 -196 194 -210 181 -25 -22 -140 -73 -205 -90 -77 -20 -230 -19 -309
1 -155 40 -308 156 -389 294 -208 358 -22 816 378 931 79 23 246 25 329 3z"/>
<path d="M2212 3359 c-143 -28 -274 -144 -323 -287 -23 -65 -27 -186 -9 -254
19 -72 69 -155 126 -208 215 -203 569 -133 697 137 30 64 32 74 32 183 0 110
-2 119 -32 180 -95 193 -285 290 -491 249z"/>
</g>
</svg>
